#!OML:ASF E:\Style4\Style4.ASF
:FULLY-SPECIFIED
:DEGREES
2428
root -0.224396 17.1432 -1.79337 9.19682 11.3035 3.1294
lowerback 21.9213 3.07118 -0.222811
upperback 10.6912 4.01042 0.139224
thorax -0.594637 2.0265 -0.596163
lowerneck 4.92475 -3.87792 -2.99655
upperneck -8.33815 -5.16722 3.5648
head -3.38907 -2.62334 1.92416
rclavicle 1.59028e-015 2.3059e-014
rhumerus 22.3868 15.0226 -76.9942
rradius 126.309
rwrist 15.94
rhand 17.8738 -1.41904
rfingers 7.12502
rthumb 42.5494 -25.8223
lclavicle 1.59028e-015 2.3059e-014
lhumerus 20.8011 -20.4185 71.293
lradius 120.993
lwrist -12.2506
lhand 13.5441 38.2578
lfingers 7.12502
lthumb 38.4795 63.9249
rfemur -35.0625 -6.48665 17.407
rtibia 51.0006
rfoot -23.0171 -17.0722
rtoes -8.55362
lfemur -36.6976 -4.12545 -21.1483
ltibia 46.2939
lfoot -17.6522 2.67594
ltoes -11.7825
2429
root -0.21913 17.1104 -1.79557 9.045 11.2688 3.17146
lowerback 21.8962 3.05112 -0.217743
upperback 10.8025 3.98707 0.133422
thorax -0.459888 2.01676 -0.594429
lowerneck 4.95273 -3.89481 -3.00299
upperneck -8.33855 -5.18341 3.65629
head -3.39172 -2.63519 1.95728
rclavicle 6.36111e-015 7.95139e-015
rhumerus 23.2856 14.7029 -76.7612
rradius 126.162
rwrist 16.4442
rhand 16.884 -1.04655
rfingers 7.12502
rthumb 41.6219 -25.762
lclavicle 6.36111e-015 7.95139e-015
lhumerus 20.6633 -20.598 71.3046
lradius 121.353
lwrist -12.0518
lhand 14.3676 38.2991
lfingers 7.12502
lthumb 39.2561 63.7453
rfemur -35.1953 -6.5287 17.3275
rtibia 51.5386
rfoot -23.2611 -16.9953
rtoes -8.49353
lfemur -36.8573 -4.09353 -21.235
ltibia 46.8919
lfoot -17.9324 2.62896
ltoes -11.4946
2430
root -0.215448 17.0752 -1.79659 8.80848 11.2324 3.18073
lowerback 21.9966 3.02721 -0.233368
upperback 10.884 3.95468 0.169311
thorax -0.424136 1.99979 -0.542891
lowerneck 5.07817 -3.8874 -3.10652
upperneck -8.37945 -5.17748 3.74116
head -3.42608 -2.63307 2.00924
rclavicle -5.24792e-014 1.03368e-014
rhumerus 24.1693 14.4532 -76.5122
rradius 125.919
rwrist 16.7415
rhand 16.1626 -1.07426
rfingers 7.12502
rthumb 40.9449 -26.0081
lclavicle -5.24792e-014 1.03368e-014
lhumerus 20.5701 -20.7487 71.4311
lradius 121.748
lwrist -12.3827
lhand 15.6001 38.1566
lfingers 7.12502
lthumb 40.4162 63.2558
rfemur -35.2639 -6.53417 17.2871
rtibia 52.1111
rfoot -23.4154 -17.0759
rtoes -8.96071
lfemur -36.9505 -4.00509 -21.296
ltibia 47.5244
lfoot -18.236 2.59151
ltoes -11.6932
2431
root -0.211039 17.039 -1.79876 8.51162 11.1809 3.17067
lowerback 22.182 2.94122 -0.304243
upperback 10.9793 3.83266 0.246163
thorax -0.421784 1.93465 -0.401199
lowerneck 5.14437 -3.78858 -3.34866
upperneck -8.38814 -5.06589 3.75166
head -3.44084 -2.57052 2.05403
rclavicle -2.54444e-014 2.14687e-014
rhumerus 25.2736 14.2888 -76.2383
rradius 125.466
rwrist 16.7723
rhand 15.7062 -1.17076
rfingers 7.12502
rthumb 40.516 -26.239
lclavicle -2.54444e-014 2.14687e-014
lhumerus 20.4234 -20.7092 71.5565
lradius 122.178
lwrist -12.5868
lhand 16.2747 37.8381
lfingers 7.12502
lthumb 41.0502 62.7385
rfemur -35.2913 -6.53506 17.2582
rtibia 52.7028
rfoot -23.5759 -17.0996
rtoes -9.25355
lfemur -36.9953 -3.91663 -21.3456
ltibia 48.1652
lfoot -18.4939 2.64925
ltoes -12.5935
2432
root -0.207417 17.0027 -1.79885 8.21988 11.122 3.20261
lowerback 22.2304 2.86004 -0.454854
upperback 11.1752 3.7049 0.347109
thorax -0.247472 1.86367 -0.176825
lowerneck 5.14593 -3.67664 -3.68579
upperneck -8.44216 -4.94473 3.74092
head -3.45813 -2.49871 2.10748
rclavicle -3.89618e-014 3.65764e-014
rhumerus 26.5488 14.003 -75.8781
rradius 124.837
rwrist 16.7257
rhand 15.5219 -1.02087
rfingers 7.12502
rthumb 40.3427 -26.1426
lclavicle -3.89618e-014 3.65764e-014
lhumerus 20.3685 -20.6029 71.6524
lradius 122.677
lwrist -12.5
lhand 16.4879 37.449
lfingers 7.12502
lthumb 41.2503 62.2853
rfemur -35.3015 -6.5694 17.2006
rtibia 53.2891
rfoot -23.7277 -17.1721
rtoes -9.96325
lfemur -37.0197 -3.8359 -21.4418
ltibia 48.7944
lfoot -18.6758 2.75489
ltoes -13.7346
2433
root -0.205292 16.9673 -1.79856 7.89513 11.0737 3.2952
lowerback 22.3511 2.84938 -0.566026
upperback 11.3473 3.6723 0.374559
thorax -0.125925 1.84344 -0.0778115
lowerneck 5.24177 -3.66581 -3.81477
upperneck -8.55446 -4.94557 3.7176
head -3.51364 -2.49389 2.12938
rclavicle 3.10104e-014 -2.38542e-014
rhumerus 27.5268 13.5847 -75.6636
rradius 124.129
rwrist 16.8109
rhand 15.3331 -0.746601
rfingers 7.12502
rthumb 40.1651 -25.9226
lclavicle 3.10104e-014 -2.38542e-014
lhumerus 20.5345 -20.7817 71.6154
lradius 123.193
lwrist -12.2205
lhand 16.5507 37.2166
lfingers 7.12502
lthumb 41.3092 62.0339
rfemur -35.2446 -6.61421 17.0724
rtibia 53.8611
rfoot -23.9643 -17.1645
rtoes -10.2766
lfemur -36.9606 -3.80559 -21.5845
ltibia 49.3821
lfoot -18.8849 2.69063
ltoes -13.5331
2434
root -0.203308 16.9323 -1.79841 7.53446 11.0731 3.32222
lowerback 22.6574 2.83204 -0.561375
upperback 11.4117 3.64873 0.360982
thorax -0.203104 1.83298 -0.1022
lowerneck 5.31217 -3.66885 -3.88087
upperneck -8.54557 -4.95207 3.78387
head -3.52116 -2.49822 2.16586
rclavicle 5.32743e-014 -8.74653e-015
rhumerus 28.178 13.2366 -75.6518
rradius 123.361
rwrist 17.071
rhand 15.0438 -0.731872
rfingers 7.12502
rthumb 39.8928 -25.9902
lclavicle 5.32743e-014 -8.74653e-015
lhumerus 20.7235 -21.1276 71.5332
lradius 123.814
lwrist -11.792
lhand 16.7351 37.469
lfingers 7.12502
lthumb 41.4823 62.2301
rfemur -35.14 -6.65714 17.0039
rtibia 54.4038
rfoot -24.2195 -17.1648
rtoes -10.3225
lfemur -36.8702 -3.74752 -21.6631
ltibia 49.9376
lfoot -19.1372 2.55935
ltoes -13.3631
2435
root -0.200849 16.8993 -1.7982 7.18906 11.1306 3.37025
lowerback 22.8381 2.81762 -0.520991
upperback 11.5296 3.63832 0.340705
thorax -0.157298 1.8316 -0.148691
lowerneck 5.35441 -3.70551 -3.98137
upperneck -8.46761 -4.99877 3.9425
head -3.49456 -2.52569 2.23802
rclavicle 2.70347e-014 -9.54166e-015
rhumerus 28.796 12.8025 -75.6537
rradius 122.493
rwrist 17.3917
rhand 14.8953 -0.921943
rfingers 7.12502
rthumb 39.7531 -26.222
lclavicle 2.70347e-014 -9.54166e-015
lhumerus 21.071 -21.4966 71.4683
lradius 124.456
lwrist -11.3118
lhand 16.8359 37.7154
lfingers 7.12502
lthumb 41.5769 62.4456
rfemur -35.0268 -6.73299 16.908
rtibia 54.9364
rfoot -24.4048 -17.2037
rtoes -10.4745
lfemur -36.7684 -3.71393 -21.7616
ltibia 50.4518
lfoot -19.3873 2.50664
ltoes -13.5409
2436
root -0.200731 16.8669 -1.79769 6.90604 11.1437 3.46502
lowerback 22.8326 2.86677 -0.599818
upperback 11.7268 3.69055 0.367485
thorax 0.0562574 1.85531 -0.0801121
lowerneck 5.46095 -3.76403 -4.00107
upperneck -8.57514 -5.08119 3.95274
head -3.54831 -2.56658 2.25529
rclavicle 3.10104e-014 -2.54444e-014
rhumerus 29.4433 12.3532 -75.5299
rradius 121.542
rwrist 17.6612
rhand 15.0707 -1.43062
rfingers 7.12502
rthumb 39.9182 -26.6813
lclavicle 3.10104e-014 -2.54444e-014
lhumerus 21.5923 -21.768 71.5029
lradius 125.061
lwrist -10.8035
lhand 16.7781 37.7849
lfingers 7.12502
lthumb 41.5226 62.5329
rfemur -34.9785 -6.73929 16.7632
rtibia 55.4483
rfoot -24.6194 -17.228
rtoes -10.8323
lfemur -36.7175 -3.64171 -21.9053
ltibia 50.9364
lfoot -19.6036 2.47604
ltoes -13.5604
2437
root -0.201701 16.8365 -1.79808 6.7006 11.1282 3.51417
lowerback 22.8852 2.92545 -0.675391
upperback 11.8381 3.75318 0.390233
thorax 0.147393 1.88337 -0.0257795
lowerneck 5.49943 -3.82489 -3.85977
upperneck -8.62902 -5.16719 3.77478
head -3.5777 -2.60618 2.1766
rclavicle -5.56597e-015 2.38542e-015
rhumerus 29.8741 11.971 -75.5558
rradius 120.448
rwrist 18.1081
rhand 15.3514 -1.80998
rfingers 7.12502
rthumb 40.1823 -26.9808
lclavicle -5.56597e-015 2.38542e-015
lhumerus 22.1495 -21.8628 71.5623
lradius 125.694
lwrist -10.4148
lhand 17.1846 37.772
lfingers 7.12502
lthumb 41.9039 62.3941
rfemur -35.0358 -6.74137 16.6872
rtibia 55.939
rfoot -24.8707 -17.168
rtoes -10.8684
lfemur -36.7591 -3.57805 -21.983
ltibia 51.3876
lfoot -19.7658 2.28614
ltoes -13.0012
2438
root -0.201753 16.8091 -1.79709 6.58824 11.1215 3.55499
lowerback 22.8172 3.01932 -0.623547
upperback 11.9642 3.88546 0.353564
thorax 0.325135 1.9542 -0.114845
lowerneck 5.42041 -3.94322 -3.56008
upperneck -8.65012 -5.31357 3.58976
head -3.57436 -2.68038 2.06478
rclavicle 2.70347e-014 1.19271e-014
rhumerus 30.1702 11.3249 -75.7089
rradius 119.273
rwrist 18.4792
rhand 15.4394 -1.55292
rfingers 7.12502
rthumb 40.2651 -26.6985
lclavicle 2.70347e-014 1.19271e-014
lhumerus 22.9714 -22.0621 71.4907
lradius 126.3
lwrist -10.064
lhand 17.5529 37.6611
lfingers 7.12502
lthumb 42.249 62.1672
rfemur -35.1567 -6.75965 16.631
rtibia 56.3841
rfoot -25.0983 -17.0838
rtoes -10.4202
lfemur -36.8673 -3.56366 -22.0357
ltibia 51.8034
lfoot -19.9362 2.09544
ltoes -12.3663
2439
root -0.202055 16.7853 -1.79267 6.48072 11.1532 3.6134
lowerback 22.6487 3.06986 -0.659073
upperback 12.1488 3.95004 0.391774
thorax 0.605788 1.9851 -0.0524291
lowerneck 5.24477 -4.00344 -3.53209
upperneck -8.63133 -5.39873 3.46208
head -3.53377 -2.71751 2.01348
rclavicle 4.45278e-014 2.38542e-015
rhumerus 30.4702 10.8554 -75.7977
rradius 118.075
rwrist 18.718
rhand 15.2773 -1.61067
rfingers 7.12502
rthumb 40.1126 -26.8026
lclavicle 4.45278e-014 2.38542e-015
lhumerus 23.8198 -22.2823 71.4545
lradius 126.81
lwrist -9.63538
lhand 17.0163 37.5955
lfingers 7.12502
lthumb 41.7461 62.2701
rfemur -35.2152 -6.83317 16.5651
rtibia 56.7727
rfoot -25.2631 -17.1001
rtoes -10.5188
lfemur -36.9205 -3.57594 -22.1066
ltibia 52.1743
lfoot -20.1237 2.04979
ltoes -12.2877
